<?xml version="1.0" encoding="UTF-8" standalone="no"?>
<svg
   xmlns:dc="http://purl.org/dc/elements/1.1/"
   xmlns:cc="http://creativecommons.org/ns#"
   xmlns:rdf="http://www.w3.org/1999/02/22-rdf-syntax-ns#"
   xmlns:svg="http://www.w3.org/2000/svg"
   xmlns="http://www.w3.org/2000/svg"
   xmlns:sodipodi="http://sodipodi.sourceforge.net/DTD/sodipodi-0.dtd"
   xmlns:inkscape="http://www.inkscape.org/namespaces/inkscape"
   x="0px"
   y="0px"
   width="107.35"
   height="107.35"
   viewbox="0 0 144 144"
   version="1.1"
   id="svg1119"
   sodipodi:docname="thinking-with-rust.svg"
   inkscape:version="0.92.2 2405546, 2018-03-11"
   inkscape:export-filename="/home/thomas/projects/graphic/thinking-with-rust/thinking-with-rust.png"
   inkscape:export-xdpi="457.86679"
   inkscape:export-ydpi="457.86679">
  <metadata
     id="metadata1125">
    <rdf:RDF>
      <cc:Work
         rdf:about="">
        <dc:format>image/svg+xml</dc:format>
        <dc:type
           rdf:resource="http://purl.org/dc/dcmitype/StillImage" />
      </cc:Work>
    </rdf:RDF>
  </metadata>
  <defs
     id="defs1123"><inkscape:path-effect
   effect="skeletal"
   id="path-effect1782"
   is_visible="true"
   pattern="M 0,5 C 0,2.24 2.24,0 5,0 7.76,0 10,2.24 10,5 10,7.76 7.76,10 5,10 2.24,10 0,7.76 0,5 Z"
   copytype="single_stretched"
   prop_scale="1"
   scale_y_rel="false"
   spacing="0"
   normal_offset="0"
   tang_offset="0"
   prop_units="false"
   vertical_pattern="false"
   fuse_tolerance="0" />
<inkscape:path-effect
   effect="spiro"
   id="path-effect1780"
   is_visible="true" />
<inkscape:path-effect
   effect="skeletal"
   id="path-effect1776"
   is_visible="true"
   pattern="M 0,5 C 0,2.24 2.24,0 5,0 7.76,0 10,2.24 10,5 10,7.76 7.76,10 5,10 2.24,10 0,7.76 0,5 Z"
   copytype="single_stretched"
   prop_scale="1"
   scale_y_rel="false"
   spacing="0"
   normal_offset="0"
   tang_offset="0"
   prop_units="false"
   vertical_pattern="false"
   fuse_tolerance="0" />
<inkscape:path-effect
   effect="spiro"
   id="path-effect1774"
   is_visible="true" />
<inkscape:path-effect
   effect="skeletal"
   id="path-effect1770"
   is_visible="true"
   pattern="M 0,5 C 0,2.24 2.24,0 5,0 7.76,0 10,2.24 10,5 10,7.76 7.76,10 5,10 2.24,10 0,7.76 0,5 Z"
   copytype="single_stretched"
   prop_scale="1"
   scale_y_rel="false"
   spacing="0"
   normal_offset="0"
   tang_offset="0"
   prop_units="false"
   vertical_pattern="false"
   fuse_tolerance="0" />
<inkscape:path-effect
   effect="spiro"
   id="path-effect1768"
   is_visible="true" />
<inkscape:path-effect
   effect="spiro"
   id="path-effect1760"
   is_visible="true" />
<inkscape:path-effect
   effect="spiro"
   id="path-effect1758"
   is_visible="true" />
<inkscape:path-effect
   effect="skeletal"
   id="path-effect1756"
   is_visible="true"
   pattern="M 0,5 C 0,2.24 2.24,0 5,0 7.76,0 10,2.24 10,5 10,7.76 7.76,10 5,10 2.24,10 0,7.76 0,5 Z"
   copytype="single_stretched"
   prop_scale="1"
   scale_y_rel="false"
   spacing="0"
   normal_offset="0"
   tang_offset="0"
   prop_units="false"
   vertical_pattern="false"
   fuse_tolerance="0" />
<inkscape:path-effect
   effect="skeletal"
   id="path-effect1707"
   is_visible="true"
   pattern="M 0,5 C 0,2.24 2.24,0 5,0 7.76,0 10,2.24 10,5 10,7.76 7.76,10 5,10 2.24,10 0,7.76 0,5 Z"
   copytype="single_stretched"
   prop_scale="1"
   scale_y_rel="false"
   spacing="0"
   normal_offset="0"
   tang_offset="0"
   prop_units="false"
   vertical_pattern="false"
   fuse_tolerance="0" />
<inkscape:path-effect
   effect="skeletal"
   id="path-effect1135"
   is_visible="true"
   pattern="m -2.1213203,6.1490485 c 0,-2.76 2.23999996,-5 5,-5 2.76,0 5,2.24 5,5 0,2.76 -2.24,5.0000005 -5,5.0000005 -2.76000004,0 -5,-2.2400005 -5,-5.0000005 z"
   copytype="single_stretched"
   prop_scale="1"
   scale_y_rel="false"
   spacing="0"
   normal_offset="0"
   tang_offset="0"
   prop_units="false"
   vertical_pattern="false"
   fuse_tolerance="0" />
<inkscape:path-effect
   effect="spiro"
   id="path-effect1133"
   is_visible="true" />

	

		
	
			
			
			
		</defs>
  <sodipodi:namedview
     pagecolor="#ffffff"
     bordercolor="#666666"
     borderopacity="1"
     objecttolerance="10"
     gridtolerance="10"
     guidetolerance="10"
     inkscape:pageopacity="0"
     inkscape:pageshadow="2"
     inkscape:window-width="1865"
     inkscape:window-height="1046"
     id="namedview1121"
     showgrid="false"
     inkscape:object-paths="false"
     inkscape:snap-intersection-paths="false"
     inkscape:snap-smooth-nodes="true"
     inkscape:zoom="8.0000001"
     inkscape:cx="48.526386"
     inkscape:cy="59.702119"
     inkscape:window-x="55"
     inkscape:window-y="0"
     inkscape:window-maximized="1"
     inkscape:current-layer="svg1119"
     inkscape:snap-object-midpoints="true"
     showguides="true"
     inkscape:guide-bbox="true">
    <sodipodi:guide
       position="53.674965,53.675027"
       orientation="1,0"
       id="guide344"
       inkscape:locked="false" />
    <sodipodi:guide
       position="53.674965,53.675027"
       orientation="0,1"
       id="guide346"
       inkscape:locked="false" />
  </sodipodi:namedview>
  <path
     id="path253"
     d="m 15.340766,53.674972 c 0,21.17242 17.164095,38.334199 38.334199,38.334199 21.172421,0 38.3342,-17.161779 38.3342,-38.334199 2.1e-4,-21.170105 -17.161569,-38.3342 -38.333989,-38.3342 -21.170105,0 -38.33441,17.164095 -38.33441,38.3342"
     style="fill:#ffcc4d;stroke-width:0.21057656"
     inkscape:connector-curvature="0" />
  <path
     d="m 53.697201,9.6375094 c -0.425771,0 -0.851674,0.1878018 -1.082458,0.5626146 l -2.291588,3.701417 -1.079169,0.105285 -2.967714,-3.183218 c -0.120144,-0.128558 -0.269126,-0.212644 -0.426074,-0.273083 -0.0029,-0.0011 -0.0052,-0.0038 -0.0083,-0.005 -0.0027,-0.0011 -0.0055,-0.0022 -0.0083,-0.0033 -0.05525,-0.02032 -0.110143,-0.03862 -0.167798,-0.051 -0.09348,-0.02318 -0.189347,-0.03853 -0.286243,-0.04113 -0.530102,-0.0142 -1.077326,0.27328 -1.269997,0.791281 l -1.520049,4.066623 -1.024881,0.310918 -3.505652,-2.523543 c -0.180844,-0.130633 -0.389626,-0.197105 -0.602097,-0.21057 -0.640586,-0.06182 -1.332987,0.369074 -1.441085,1.033107 l -0.699157,4.288708 -0.950853,0.509973 -3.923501,-1.78984 c -0.108288,-0.04949 -0.220545,-0.07729 -0.33395,-0.09048 -0.740057,-0.112957 -1.538237,0.511321 -1.508533,1.288094 l 0.152992,4.35122 -0.835698,0.685996 -4.23771,-0.998559 c -0.860808,-0.202148 -1.735355,0.672401 -1.533209,1.533208 l 1.000205,4.237711 -0.68764,0.834052 -4.351221,-0.151347 c -0.886077,-0.03369 -1.571467,0.996139 -1.202549,1.801357 l 1.801355,3.954757 -0.514908,0.962368 -4.287062,0.697512 c -0.870899,0.143187 -1.346277,1.286118 -0.829118,2.002055 l 2.536704,3.522103 -0.319144,1.049558 -4.064978,1.521693 c -0.827117,0.308274 -1.069653,1.52072 -0.422784,2.123791 l 3.181573,2.967713 -0.105284,1.077523 -3.701417,2.291588 c -0.7496278,0.463253 -0.7496278,1.70335 0,2.164918 l 3.701475,2.291622 0.105284,1.077523 -3.179928,2.967713 c -0.646869,0.601387 -0.405978,1.813833 0.421139,2.123791 l 4.066623,1.520048 0.317499,1.049558 -2.535058,3.523748 c -0.517159,0.717621 -0.04348,1.860592 0.829117,2.00041 l 4.287062,0.697512 0.514908,0.964013 -1.801355,3.953112 c -0.327319,0.712926 0.182673,1.602317 0.914661,1.770099 0.104861,0.02796 0.214571,0.04237 0.327369,0.03782 l 4.31832,-0.149698 0.679415,0.827471 -0.99856,4.239353 c -0.177242,0.753375 0.472698,1.516193 1.21571,1.556243 0.117667,0.01061 0.236888,0.0067 0.356981,-0.02139 l 4.236065,-0.996912 0.835698,0.684351 -0.151347,4.352858 c -0.03369,0.881032 0.997823,1.569787 1.801356,1.202554 l 3.953113,-1.801354 0.962369,0.516552 0.699156,4.285418 c 0.141503,0.8726 1.286119,1.344554 2.002055,0.830764 l 3.523749,-2.538348 1.049556,0.319139 1.520049,4.064977 c 0.308274,0.825432 1.522404,1.068008 2.12379,0.421139 l 2.967714,-3.179928 1.079169,0.106936 2.289943,3.701415 c 0.461568,0.746258 1.703309,0.747943 2.166562,0 l 2.289943,-3.701415 1.079168,-0.106936 2.966069,3.179928 c 0.601386,0.646869 1.815517,0.404293 2.12379,-0.421139 l 1.520049,-4.064977 1.049557,-0.319139 3.523748,2.538348 c 0.715937,0.51379 1.858908,0.04018 2.00041,-0.830764 l 0.699157,-4.285418 0.964014,-0.516552 3.953112,1.801354 c 0.803533,0.367233 1.833364,-0.319821 1.801357,-1.202554 l -0.152991,-4.352858 0.835699,-0.684351 4.237711,0.996912 c 0.860808,0.202147 1.733686,-0.669148 1.531564,-1.528271 l -0.998562,-4.239362 0.685993,-0.835691 4.351225,0.151341 c 0.877653,0.03538 1.571463,-0.99782 1.202545,-1.801353 l -1.801355,-3.953113 0.51491,-0.964014 4.287062,-0.697511 c 0.8726,-0.139818 1.346281,-1.282789 0.829122,-2.00041 l -2.535065,-3.523749 0.317496,-1.049556 4.06663,-1.520049 c 0.827117,-0.309958 1.068008,-1.522404 0.421139,-2.12379 l -3.179928,-2.967714 0.105285,-1.077524 3.701416,-2.291588 c 0.749627,-0.461568 0.749627,-1.701664 0,-2.164917 l -3.701416,-2.291588 -0.105285,-1.077523 3.18157,-2.967714 c 0.64687,-0.603071 0.404336,-1.815517 -0.422781,-2.12379 L 92.056947,42.612951 91.7378,41.563394 94.274507,38.041291 c 0.517159,-0.715937 0.04178,-1.858868 -0.829121,-2.002055 l -4.287062,-0.697512 -0.51491,-0.962368 1.801354,-3.954758 c 0.368918,-0.805218 -0.316469,-1.835047 -1.202545,-1.801356 l -4.351224,0.151347 -0.687636,-0.834053 1.000205,-4.237711 c 0.202147,-0.860807 -0.672399,-1.735355 -1.533207,-1.533208 l -4.237711,0.99856 -0.835699,-0.685996 0.152991,-4.351221 c 0.03369,-0.881023 -0.997824,-1.569743 -1.801357,-1.204194 l -3.953112,1.803001 -0.962369,-0.516553 -0.699157,-4.288708 c -0.141502,-0.869232 -1.286118,-1.34459 -2.002055,-0.829118 L 65.808144,15.632092 64.760232,15.314593 63.240183,11.24797 C 62.932002,10.41921 61.716226,10.180082 61.11484,10.823582 L 58.148771,14.006801 57.071248,13.901516 54.77966,10.200099 C 54.548033,9.8252851 54.122973,9.6374841 53.697201,9.6374841 Z M 53.55737,17.397323 c 1.3089,0 2.617312,0.872114 2.617312,2.617313 0,3.490398 -5.23627,3.490398 -5.236269,0 0,-1.745199 1.310057,-2.617313 2.618957,-2.617313 z m 6.075258,4.311739 c 9.305875,1.743095 17.374047,7.489107 22.063736,15.713747 l -3.087807,6.973469 c -0.533162,1.206984 0.01044,2.618761 1.214067,3.153606 l 5.945295,2.640344 c 0.04624,0.464896 0.08254,0.930413 0.108578,1.396668 0.07816,1.398765 0.06519,2.802223 -0.0395,4.199874 0,0 0.01297,0.04048 0.01314,0.04113 -0.454846,6.086674 -2.671377,12.027825 -6.348341,16.899845 -0.383362,0.504686 -0.778938,0.999654 -1.191039,1.480566 -0.04102,0.04785 -0.08044,0.09717 -0.121735,0.144767 -0.484985,0.559306 -0.987255,1.103652 -1.510176,1.628623 L 71.141528,74.790667 C 69.852001,74.5144 68.583332,75.334516 68.307065,76.62657 l -1.312768,6.132839 c -8.550585,3.873189 -18.365814,3.826679 -26.878865,-0.128321 l -1.312769,-6.132834 c -0.276267,-1.290369 -1.544132,-2.111366 -2.832817,-1.834257 l -5.413938,1.161422 c -0.540954,-0.55713 -1.057282,-1.136442 -1.556199,-1.730618 a 24.716586,27.396699 0 0 1 -0.03783,0.01151 c -0.383495,-0.451514 -0.755138,-0.913084 -1.113725,-1.38515 -3.676964,-4.872022 -5.893493,-10.813171 -6.34834,-16.899845 1.69e-4,-6.49e-4 0.01317,-0.04113 0.01317,-0.04113 -0.104695,-1.39765 -0.117645,-2.801108 -0.03948,-4.199873 0.02604,-0.466255 0.06234,-0.931773 0.108575,-1.396668 l 5.945298,-2.640344 c 1.203623,-0.534845 1.747226,-1.946623 1.214064,-3.153607 l -3.087813,-6.973467 c 2.572522,-4.511609 6.168007,-8.266341 10.421544,-11.031866 a 24.716586,27.396699 0 0 1 0.01809,0.01481 c 3.510167,-2.290588 7.452409,-3.895052 11.624092,-4.683525 l 4.030431,4.229485 c 0.911345,0.954301 2.420588,0.989503 3.374047,0.07732 z M 22.564176,41.214705 c 1.3089,0 2.618957,0.872114 2.618957,2.617312 0,3.490402 -5.236269,3.4904 -5.236269,0 0,-1.745199 1.308412,-2.617312 2.617312,-2.617312 z m 62.22163,0.0066 c 1.3089,0 2.617319,0.872113 2.617319,2.617312 0,3.4904 -5.236273,3.490402 -5.236273,0 0,-1.745198 1.310054,-2.617312 2.618954,-2.617312 z M 34.161948,77.987032 c 1.3089,0 2.618958,0.873762 2.618958,2.618962 0,3.490399 -5.236271,3.490399 -5.236271,0 0,-1.7452 1.308413,-2.618962 2.617313,-2.618962 z m 38.789199,0.123385 c 1.3089,0 2.617313,0.872111 2.617313,2.617311 0,3.4904 -5.236271,3.4904 -5.236271,0 0,-1.7452 1.310058,-2.617311 2.618958,-2.617311 z"
     id="path1117"
     inkscape:connector-curvature="0"
     style="stroke-width:0.84227788" />
  <g
     id="g265"
     transform="matrix(0.23048933,0,0,-0.23048933,6.4933383,20.013388)">
				<path
   id="path255"
   d="m 175.189,-83.467 c 0,-15.713 -10.194,-28.444 -22.756,-28.444 -12.562,0 -22.756,12.732 -22.756,28.444 0,15.701 10.194,28.444 22.756,28.444 12.562,0 22.756,-12.742 22.756,-28.444"
   style="fill:#664500"
   inkscape:connector-curvature="0" />

				<path
   id="path257"
   d="m 295.725,-94.844 c 0,-15.713 -10.183,-28.444 -22.756,-28.444 -12.561,0 -22.756,12.732 -22.756,28.444 0,15.701 10.194,28.444 22.756,28.444 12.573,0 22.756,-12.743 22.756,-28.444"
   style="fill:#664500"
   inkscape:connector-curvature="0" />

				<path
   id="path259"
   d="m 109.937,-36.055 c -1.866,0.99 -3.447,2.537 -4.449,4.528 -2.458,4.881 -0.455,10.547 4.471,12.663 48.538,20.821 87.598,0.489 89.236,-0.387 4.927,-2.628 6.918,-8.511 4.449,-13.13 -2.458,-4.608 -8.42,-6.212 -13.346,-3.618 -1.399,0.728 -32.222,16.293 -71.43,-0.535 -2.923,-1.24 -6.223,-0.966 -8.931,0.479"
   style="fill:#664500"
   inkscape:connector-curvature="0" />

				<path
   id="path261"
   d="m 167.645,-186.686 c -1.547,1.445 -2.685,3.334 -3.14,5.53 -1.126,5.336 2.253,10.308 7.566,11.082 52.247,7.714 84.787,-21.948 86.164,-23.211 4.096,-3.8 4.494,-9.978 0.933,-13.824 -3.55,-3.823 -9.728,-3.846 -13.813,-0.068 -1.183,1.047 -26.988,23.984 -69.2,17.761 -3.151,-0.467 -6.268,0.637 -8.51,2.73"
   style="fill:#664500"
   inkscape:connector-curvature="0" />

				<path
   id="path263"
   d="m 232.362,-78.722 c -1.775,1.115 -3.254,2.765 -4.119,4.824 -2.128,5.029 0.262,10.559 5.313,12.334 49.846,17.476 87.438,-5.461 89.02,-6.451 4.722,-2.958 6.303,-8.954 3.538,-13.403 -2.753,-4.437 -8.829,-5.632 -13.551,-2.708 -1.365,0.831 -31.039,18.443 -71.305,4.324 -3.002,-1.048 -6.279,-0.547 -8.896,1.08"
   style="fill:#664500"
   inkscape:connector-curvature="0" />

			</g>
  <path
     id="path267"
     d="m 51.776425,103.84789 c 0,0 3.317432,-1.07777 3.747526,-3.54562 0.453603,-2.546444 -1.636475,-3.060436 -1.636475,-3.060436 0,0 2.729916,-0.545568 3.073576,-3.608541 0.322454,-2.884804 -2.26064,-3.574428 -2.26064,-3.574428 0,0 2.54368,-1.048957 2.664457,-4.035868 0.09957,-2.514869 -2.60937,-3.74476 -2.60937,-3.74476 0,0 13.211879,-3.199423 14.567848,-3.514041 1.353203,-0.317384 3.464254,-1.615499 2.805977,-4.444986 -0.652976,-2.832253 -3.157474,-2.931825 -4.452824,-2.630345 -1.29558,0.304246 -17.685907,4.109395 -23.33981,5.42595 -0.603191,0.138985 -3.430142,0.791961 -3.773802,0.875859 -1.416126,0.333057 -2.058731,-0.291108 -1.062095,-1.3426 1.334764,-1.405524 2.184578,-2.960866 2.483523,-5.541194 0.312082,-2.716778 -0.608492,-6.068323 -1.135621,-7.366439 -0.980732,-2.415298 -2.635646,-4.324441 -4.547324,-4.979953 -2.984376,-1.022681 -5.103264,0.841747 -4.043935,4.093721 1.583922,4.864708 0.548103,8.850791 -2.184578,11.258252 -6.422355,5.656669 -9.412032,9.690002 -7.421526,18.286332 2.168674,9.375387 11.478599,15.409597 20.853752,13.238157 0.495783,-0.11064 8.271341,-1.78906 8.271341,-1.78906"
     style="fill:#f4900c;stroke-width:0.23048933"
     inkscape:connector-curvature="0" />
  <g
     id="g275"
     transform="matrix(0.12918978,0,0,0.12918978,20.618207,24.277191)">
</g>
  <g
     id="g277"
     transform="matrix(0.12918978,0,0,0.12918978,20.618207,24.277191)">
</g>
  <g
     id="g279"
     transform="matrix(0.12918978,0,0,0.12918978,20.618207,24.277191)">
</g>
  <g
     id="g281"
     transform="matrix(0.12918978,0,0,0.12918978,20.618207,24.277191)">
</g>
  <g
     id="g283"
     transform="matrix(0.12918978,0,0,0.12918978,20.618207,24.277191)">
</g>
  <g
     id="g285"
     transform="matrix(0.12918978,0,0,0.12918978,20.618207,24.277191)">
</g>
  <g
     id="g287"
     transform="matrix(0.12918978,0,0,0.12918978,20.618207,24.277191)">
</g>
  <g
     id="g289"
     transform="matrix(0.12918978,0,0,0.12918978,20.618207,24.277191)">
</g>
  <g
     id="g291"
     transform="matrix(0.12918978,0,0,0.12918978,20.618207,24.277191)">
</g>
  <g
     id="g293"
     transform="matrix(0.12918978,0,0,0.12918978,20.618207,24.277191)">
</g>
  <g
     id="g295"
     transform="matrix(0.12918978,0,0,0.12918978,20.618207,24.277191)">
</g>
  <g
     id="g297"
     transform="matrix(0.12918978,0,0,0.12918978,20.618207,24.277191)">
</g>
  <g
     id="g299"
     transform="matrix(0.12918978,0,0,0.12918978,20.618207,24.277191)">
</g>
  <g
     id="g301"
     transform="matrix(0.12918978,0,0,0.12918978,20.618207,24.277191)">
</g>
  <g
     id="g303"
     transform="matrix(0.12918978,0,0,0.12918978,20.618207,24.277191)">
</g>
</svg>
